<?xml version="1.0" encoding="UTF-8"?>
<svg width="24px" height="24px" viewBox="0 0 24 24" version="1.1" xmlns="http://www.w3.org/2000/svg" xmlns:xlink="http://www.w3.org/1999/xlink">
    <!-- Generator: sketchtool 41.2 (35397) - http://www.bohemiancoding.com/sketch -->
    <title>6D25A1D6-7FCE-4A02-8CEA-1F2E8EF907D7</title>
    <desc>Created with sketchtool.</desc>
    <defs></defs>
    <g id="corporate-pricingPage" stroke="none" stroke-width="1" fill="none" fill-rule="evenodd" stroke-linejoin="round">
        <g id="corporate-pricing" transform="translate(-1004.000000, -712.000000)" stroke="#5BEFFF">
            <g id="icon-premium" transform="translate(1004.000000, 712.000000)">
                <polygon id="Stroke-714" points="12.0068 7.0024 13.4998 10.5004 16.9998 10.5004 13.9998 12.9994 15.4998 16.9994 12.0068 14.3514 8.4998 16.9994 9.9998 12.9994 6.9998 10.5004 10.4998 10.5004"></polygon>
                <polygon id="Stroke-715" points="21.2842 13.8467 23.5002 11.9997 21.2842 10.1537 22.6242 7.5987 19.8702 6.7417 20.1322 3.8677 17.2592 4.1297 16.4002 1.3757 13.8462 2.7157 12.0002 0.4997 10.1532 2.7157 7.5992 1.3757 6.7412 4.1297 3.8682 3.8677 4.1292 6.7417 1.3752 7.5987 2.7162 10.1537 0.5002 11.9997 2.7162 13.8467 1.3752 16.4007 4.1292 17.2587 3.8682 20.1317 6.7412 19.8707 7.5992 22.6247 10.1532 21.2837 12.0002 23.4997 13.8462 21.2837 16.4002 22.6247 17.2592 19.8707 20.1322 20.1317 19.8702 17.2587 22.6242 16.4007"></polygon>
            </g>
        </g>
    </g>
</svg>