<?xml version="1.0" encoding="UTF-8"?>
<svg width="29px" height="28px" viewBox="0 0 29 28" version="1.1" xmlns="http://www.w3.org/2000/svg" xmlns:xlink="http://www.w3.org/1999/xlink">
    <!-- Generator: sketchtool 41.2 (35397) - http://www.bohemiancoding.com/sketch -->
    <title>86A5AD7B-B903-4680-8DEF-54DE1952DBC4</title>
    <desc>Created with sketchtool.</desc>
    <defs></defs>
    <g id="corporate-pricingPage" stroke="none" stroke-width="1" fill="none" fill-rule="evenodd">
        <g id="corporate-pricing" transform="translate(-1001.000000, -565.000000)" stroke="#5BEFFF">
            <g id="icon-infra" transform="translate(1001.000000, 565.000000)">
                <path d="M28.0417,20 C28.0417,24.142 24.6837,27.5 20.5417,27.5 C16.3997,27.5 13.0417,24.142 13.0417,20 C13.0417,15.858 16.3997,12.5 20.5417,12.5 C24.6837,12.5 28.0417,15.858 28.0417,20 L28.0417,20 Z" id="Stroke-723" stroke-linejoin="round"></path>
                <polygon id="Stroke-724" stroke-linejoin="round" points="20.5417 15.5 22.0417 18.5 25.0417 18.5 22.5417 20.5 23.5417 24 20.5417 22.124 17.5417 24 18.5417 20.5 16.0417 18.5 19.0417 18.5"></polygon>
                <path d="M19.5004,4.5 C19.5004,6.709 15.2464,8.5 10.0004,8.5 C4.7544,8.5 0.5004,6.709 0.5004,4.5 C0.5004,2.291 4.7544,0.5 10.0004,0.5 C15.2464,0.5 19.5004,2.291 19.5004,4.5 L19.5004,4.5 Z" id="Stroke-5383" stroke-linecap="round"></path>
                <path d="M11.5004,12.4502 C11.0114,12.4832 10.5104,12.5002 10.0004,12.5002 C4.7544,12.5002 0.5004,10.7092 0.5004,8.5002" id="Stroke-5384" stroke-linecap="round"></path>
                <path d="M10.0004,17 C4.7544,17 0.5004,15.209 0.5004,13" id="Stroke-5385" stroke-linecap="round"></path>
                <path d="M10.0004,21.5 C4.7544,21.5 0.5004,19.709 0.5004,17.5 L0.5004,4.5" id="Stroke-5386" stroke-linecap="round"></path>
                <path d="M19,4.5 L19,10" id="Stroke-5387" stroke-linecap="round"></path>
            </g>
        </g>
    </g>
</svg>