<?xml version="1.0" encoding="UTF-8"?>
<svg width="24px" height="24px" viewBox="0 0 24 24" version="1.1" xmlns="http://www.w3.org/2000/svg" xmlns:xlink="http://www.w3.org/1999/xlink">
    <!-- Generator: sketchtool 41.2 (35397) - http://www.bohemiancoding.com/sketch -->
    <title>74208AB4-A2D0-4E08-9387-95310853B602</title>
    <desc>Created with sketchtool.</desc>
    <defs></defs>
    <g id="corporate-pricingPage" stroke="none" stroke-width="1" fill="none" fill-rule="evenodd">
        <g id="corporate-pricing" transform="translate(-1004.000000, -623.000000)">
            <g id="icon-customer" transform="translate(1004.000000, 623.000000)">
                <polyline id="Stroke-1136" stroke="#5BEFFF" points="14 9.5 16 9.5 16 13.5 20 9.5 23.5 9.5 23.5 0.5 8.5 0.5 8.5 4.5"></polyline>
                <path d="M6,16.1875 L6,18.3685 L2.059,19.7805 C1.116,20.1175 0.5,21.0105 0.5,22.0115 L0.5,23.4995 L15.5,23.4995 L15.5,22.0115 C15.5,21.0105 14.884,20.1175 13.941,19.7805 L10,18.3685 L10,16.0625" id="Stroke-1137" stroke="#5BEFFF"></path>
                <path d="M11.8486,12.0522 C11.8486,14.6682 10.0816,16.7892 7.9016,16.7892 C5.7216,16.7892 3.9536,14.6682 3.9536,12.0522 C3.9536,9.4362 5.7216,7.3162 7.9016,7.3162 C10.0816,7.3162 11.8486,9.4362 11.8486,12.0522 L11.8486,12.0522 Z" id="Stroke-1138" stroke="#5BEFFF"></path>
                <path d="M11.8281,11.625 C11.6961,11.641 11.5871,11.632 11.4541,11.658 C10.1091,11.917 9.2461,11.43 8.5051,10.134 C8.0611,10.986 6.6731,11.658 5.5331,11.658 C4.9721,11.658 4.4881,11.543 4.0051,11.29" id="Stroke-1139" stroke="#5BEFFF"></path>
                <polygon id="Fill-1140" fill="#5BEFFF" points="20 5 19 5 19 6 20 6"></polygon>
                <polygon id="Fill-1141" fill="#5BEFFF" points="17 5 16 5 16 6 17 6"></polygon>
                <polygon id="Fill-1142" fill="#5BEFFF" points="14 5 13 5 13 6 14 6"></polygon>
            </g>
        </g>
    </g>
</svg>