<?xml version="1.0" encoding="utf-8"?>
<!-- Generator: Adobe Illustrator 20.0.0, SVG Export Plug-In . SVG Version: 6.00 Build 0)  -->
<svg version="1.1" id="Layer_1" xmlns="http://www.w3.org/2000/svg" xmlns:xlink="http://www.w3.org/1999/xlink" x="0px" y="0px"
	 viewBox="0 0 38 38" style="enable-background:new 0 0 38 38;" xml:space="preserve">
<title>48_px - Regular - 70 Basic Icons</title>
<g>
	<path d="M36,9.7H2c-1.1,0-2-0.9-2-2s0.9-2,2-2h34c1.1,0,2,0.9,2,2S37.1,9.7,36,9.7z"/>
	<path d="M36,20.7H2c-1.1,0-2-0.9-2-2c0-1.1,0.9-2,2-2h34c1.1,0,2,0.9,2,2C38,19.8,37.1,20.7,36,20.7z"/>
	<path d="M36,31.7H2c-1.1,0-2-0.9-2-2s0.9-2,2-2h34c1.1,0,2,0.9,2,2S37.1,31.7,36,31.7z"/>
</g>
</svg>
