<?xml version="1.0" encoding="UTF-8"?>
<svg width="25px" height="19px" viewBox="0 0 25 19" version="1.1" xmlns="http://www.w3.org/2000/svg" xmlns:xlink="http://www.w3.org/1999/xlink">
    <!-- Generator: sketchtool 41.2 (35397) - http://www.bohemiancoding.com/sketch -->
    <title>8168E9D9-9FC8-49E7-9D85-C5671BF8B247</title>
    <desc>Created with sketchtool.</desc>
    <defs></defs>
    <g id="corporate-pricingPage" stroke="none" stroke-width="1" fill="none" fill-rule="evenodd">
        <g id="corporate-pricing" transform="translate(-180.000000, -520.000000)">
            <g id="icon-request" transform="translate(180.000000, 520.000000)">
                <path d="M21.5003,18.5 L2.5003,18.5 C1.3963,18.5 0.5003,17.8528889 0.5003,17.0555556 L0.570294623,5.50735446 L23.5702946,5.50735446 L23.5003,17.0555556 C23.5003,17.8528889 22.6053,18.5 21.5003,18.5 Z" id="Stroke-5105" fill="#CDD7FF"></path>
                <path d="M23.5003,16.5 C23.5003,17.604 22.6053,18.5 21.5003,18.5 L2.5003,18.5 C1.3963,18.5 0.5003,17.604 0.5003,16.5 L0.5003,2.5 C0.5003,1.396 1.3963,0.5 2.5003,0.5 L21.5003,0.5 C22.6053,0.5 23.5003,1.396 23.5003,2.5 L23.5003,16.5 L23.5003,16.5 Z" id="Stroke-5105" stroke="#231F1F" stroke-linecap="round" stroke-linejoin="round"></path>
                <path d="M0.5003,5.5 L23.5003,5.5" id="Stroke-5106" stroke="#231F1F" stroke-linecap="round" stroke-linejoin="round"></path>
                <path d="M4.5003,3 C4.5003,3.276 4.2763,3.5 4.0003,3.5 C3.7233,3.5 3.5003,3.276 3.5003,3 C3.5003,2.724 3.7233,2.5 4.0003,2.5 C4.2763,2.5 4.5003,2.724 4.5003,3 L4.5003,3 Z" id="Stroke-5107" stroke="#231F1F" stroke-linecap="round" stroke-linejoin="round"></path>
                <path d="M7.5003,3 C7.5003,3.276 7.2763,3.5 7.0003,3.5 C6.7233,3.5 6.5003,3.276 6.5003,3 C6.5003,2.724 6.7233,2.5 7.0003,2.5 C7.2763,2.5 7.5003,2.724 7.5003,3 L7.5003,3 Z" id="Stroke-5108" stroke="#231F1F" stroke-linecap="round" stroke-linejoin="round"></path>
                <path d="M10.5003,3 C10.5003,3.276 10.2763,3.5 10.0003,3.5 C9.7243,3.5 9.5003,3.276 9.5003,3 C9.5003,2.724 9.7243,2.5 10.0003,2.5 C10.2763,2.5 10.5003,2.724 10.5003,3 L10.5003,3 Z" id="Stroke-5109" stroke="#231F1F" stroke-linecap="round" stroke-linejoin="round"></path>
                <polyline id="Stroke-5110" stroke="#231F1F" stroke-linecap="round" stroke-linejoin="round" points="0.5003 12.5 5.5003 12.5 7.5003 9.5 9.5003 14.5 13.5003 8.5 16.5003 15.5 18.5003 12.5 23.5003 12.5"></polyline>
            </g>
        </g>
    </g>
</svg>